<svg width="32" height="32" viewBox="0 0 32 32" fill="none" xmlns="http://www.w3.org/2000/svg">
  <g clip-path="url(#clip0_2060_948)">
    <path d="M10.8693 10.3024C11.833 15.6373 15.5257 19.33 20.8606 20.2937C21.1497 20.3449 21.1497 20.7406 20.8606 20.7919C15.5257 21.7556 11.833 25.4482 10.8693 30.7832C10.8181 31.0723 10.4224 31.0723 10.3711 30.7832C9.40745 25.4482 5.7148 21.7556 0.379825 20.7919C0.0907274 20.7406 0.0907274 20.3449 0.379825 20.2937C5.7148 19.33 9.40745 15.6373 10.3711 10.3024C10.4224 10.0133 10.8181 10.0133 10.8693 10.3024ZM20.9098 3.25947C20.2681 6.8168 17.8056 9.27926 14.2483 9.92101C14.0556 9.95587 14.0556 10.2183 14.2483 10.2532C17.8056 10.8949 20.2681 13.3574 20.9098 16.9147C20.9447 17.1074 21.2071 17.1074 21.242 16.9147C21.8837 13.3574 24.3462 10.8949 27.9035 10.2532C28.0963 10.2183 28.0963 9.95587 27.9035 9.92101C24.3462 9.27926 21.8837 6.8168 21.242 3.25947C21.2071 3.06674 20.9447 3.06674 20.9098 3.25947ZM11.2774 1.05536C11.0293 2.43113 10.0759 3.38454 8.70009 3.63263C8.62628 3.64698 8.62628 3.74745 8.70009 3.7618C10.0759 4.00989 11.0293 4.9633 11.2774 6.33907C11.2917 6.41289 11.3922 6.41289 11.4065 6.33907C11.6546 4.9633 12.608 4.00989 13.9838 3.7618C14.0576 3.74745 14.0576 3.64698 13.9838 3.63263C12.608 3.38454 11.6546 2.43113 11.4065 1.05536C11.3922 0.981547 11.2917 0.981547 11.2774 1.05536ZM29.8985 15.0058C29.7058 16.0761 28.9656 16.8142 27.8953 17.009C27.8379 17.0193 27.8379 17.0992 27.8953 17.1095C28.9656 17.3022 29.7037 18.0424 29.8985 19.1127C29.9088 19.1701 29.9887 19.1701 29.999 19.1127C30.1917 18.0424 30.9319 17.3043 32.0022 17.1095C32.0596 17.0992 32.0596 17.0193 32.0022 17.009C30.9319 16.8163 30.1938 16.0761 29.999 15.0058C29.9887 14.9484 29.9088 14.9484 29.8985 15.0058ZM25.6523 20.5746C25.5149 21.3352 24.988 21.8622 24.2273 21.9995C24.1863 22.0077 24.1863 22.0631 24.2273 22.0713C24.988 22.2087 25.5149 22.7356 25.6523 23.4963C25.6605 23.5373 25.7158 23.5373 25.724 23.4963C25.8614 22.7356 26.3883 22.2087 27.149 22.0713C27.19 22.0631 27.19 22.0077 27.149 21.9995C26.3883 21.8622 25.8614 21.3352 25.724 20.5746C25.7158 20.5336 25.6605 20.5336 25.6523 20.5746ZM1.67974 24.7695C1.52186 25.6471 0.912912 26.256 0.0353683 26.4139C-0.0117894 26.4221 -0.0117894 26.4877 0.0353683 26.4959C0.912912 26.6538 1.52186 27.2628 1.67974 28.1403C1.68794 28.1875 1.75355 28.1875 1.76175 28.1403C1.91963 27.2628 2.52858 26.6538 3.40612 26.4959C3.45328 26.4877 3.45328 26.4221 3.40612 26.4139C2.52858 26.256 1.91963 25.6471 1.76175 24.7695C1.75355 24.7224 1.68794 24.7224 1.67974 24.7695Z" fill="#0067C0" class="Blue"/>
  </g>
  <defs>
    <clipPath id="clip0_2060_948">
      <rect width="32" height="32" fill="white"/>
    </clipPath>
  </defs>
</svg>
